:FULLY-SPECIFIED
:FORCE-ALL-JOINTS-BE-3DOF
:DEGREES
178
root 8.12312 16.6054 -12.2361 7.3649 6.89777 -1.50452
lfemur -24.4749 8.0539 -18.4226
ltibia 55.678 0 0
lfoot -8.83707 10.4894 0
ltoes -7.97421 0 0
rfemur -22.1996 3.17997 26.3699
rtibia 32.0887 0 0
rfoot -18.106 0.762532 0
rtoes -12.7025 0 0
lowerback -4.11762 0.282784 0.128152
upperback -1.96194 0.367205 3.24178
thorax 0.29131 0.195238 3.23633
lowerneck -14.6835 -6.93702 -15.6676
upperneck 13.6016 -8.83995 15.9716
head 8.07832 -3.7124 6.94161
lclavicle 1.08345e-14 -1.67703e-14 0
lhumerus -47.1717 -8.31695 94.8634
lradius 28.858 0 0
lwrist 10.5501 0 0
lhand -12.9762 -21.9805 0
lfingers 7.12502 0 0
lthumb 13.1113 7.51318 0
rclavicle 1.08345e-14 -1.67703e-14 0
rhumerus -40.9165 7.65983 -78.1236
rradius 41.246 0 0
rwrist -20.8212 0 0
rhand -32.2259 -26.3882 0
rfingers 7.12502 0 0
rthumb -5.4667 -56.2932 0
179
root 8.11989 16.6135 -12.1192 7.35619 6.69819 -1.56591
lfemur -25.9018 7.97917 -18.7147
ltibia 56.0145 0 0
lfoot -9.8284 10.6948 0
ltoes -7.61768 0 0
rfemur -21.5041 3.32995 26.5053
rtibia 31.6942 0 0
rfoot -18.5165 0.805792 0
rtoes -12.7822 0 0
lowerback -4.08819 0.437236 0.176056
upperback -1.96692 0.572981 3.22816
thorax 0.257299 0.298221 3.20724
lowerneck -14.4504 -6.94407 -15.7058
upperneck 13.522 -8.87557 16.0306
head 8.0215 -3.73639 6.96469
lclavicle 8.08593e-15 -1.69002e-14 0
lhumerus -47.4762 -8.80839 95.126
lradius 29.4552 0 0
lwrist 11.5906 0 0
lhand -13.4254 -22.1862 0
lfingers 7.12502 0 0
lthumb 12.6788 7.34288 0
rclavicle 8.08593e-15 -1.69002e-14 0
rhumerus -40.6558 7.77036 -78.0173
rradius 41.8293 0 0
rwrist -21.0171 0 0
rhand -32.3403 -26.3663 0
rfingers 7.12502 0 0
rthumb -5.57715 -56.2689 0
180
root 8.11726 16.621 -12.0013 7.34974 6.49776 -1.63079
lfemur -27.2823 7.89655 -18.9807
ltibia 56.2885 0 0
lfoot -10.7777 10.8957 0
ltoes -7.2938 0 0
rfemur -20.7985 3.47608 26.6406
rtibia 31.2788 0 0
rfoot -18.8987 0.854663 0
rtoes -12.8549 0 0
lowerback -4.06543 0.58688 0.226255
upperback -1.97035 0.771731 3.21603
thorax 0.229242 0.397696 3.17832
lowerneck -14.2299 -6.94978 -15.7408
upperneck 13.4473 -8.90811 16.0856
head 7.9677 -3.75853 6.98622
lclavicle 5.4437e-15 -1.70187e-14 0
lhumerus -47.7699 -9.2757 95.3762
lradius 30.0166 0 0
lwrist 12.5704 0 0
lhand -13.853 -22.3932 0
lfingers 7.12502 0 0
lthumb 12.2671 7.16953 0
rclavicle 5.4437e-15 -1.70187e-14 0
rhumerus -40.4056 7.88291 -77.9248
rradius 42.3983 0 0
rwrist -21.2105 0 0
rhand -32.4479 -26.3486 0
rfingers 7.12502 0 0
rthumb -5.68107 -56.249 0
181
root 8.11525 16.6277 -11.8822 7.3459 6.29708 -1.69972
lfemur -28.6101 7.80601 -19.2168
ltibia 56.4971 0 0
lfoot -11.6777 11.0918 0
ltoes -7.00674 0 0
rfemur -20.083 3.61705 26.7766
rtibia 30.8422 0 0
rfoot -19.2484 0.910357 0
rtoes -12.9193 0 0
lowerback -4.04977 0.731045 0.279192
upperback -1.97212 0.962473 3.20565
thorax 0.207537 0.49318 3.14956
lowerneck -14.0238 -6.95412 -15.7724
upperneck 13.378 -8.93733 16.1364
head 7.9172 -3.77863 7.00609
lclavicle 2.92985e-15 -1.71254e-14 0
lhumerus -48.0521 -9.71408 95.6121
lradius 30.5364 0 0
lwrist 13.4809 0 0
lhand -14.2557 -22.601 0
lfingers 7.12502 0 0
lthumb 11.8795 6.99354 0
rclavicle 2.92985e-15 -1.71254e-14 0
rhumerus -40.1671 7.99736 -77.8476
rradius 42.9503 0 0
rwrist -21.4006 0 0
rhand -32.5479 -26.3359 0
rfingers 7.12502 0 0
rthumb -5.77767 -56.2342 0
